<svg width="480" height="480" fill="none" xmlns="http://www.w3.org/2000/svg"><path d="M253.388 118.853H128.799c-36.256 0-65.7 28.644-65.7 63.998 0 35.353 29.444 63.997 65.7 63.997h124.589c36.256 0 65.7-28.644 65.7-63.997 0-35.354-29.444-63.998-65.7-63.998z" fill="#D7EFFE"/><path d="M68.106 158.413l-33.952 93.643c-6.71 17.827 2.804 37.557 20.932 43.366 17.927 5.709 37.557-.501 48.875-15.624l24.837-33.05-60.692-88.335zM315.082 161.218l32.35 90.838c6.71 17.827-2.804 37.557-20.932 43.366-17.927 5.709-37.557-.501-48.875-15.624l-24.838-33.05 62.295-85.53z" fill="#D7EFFE"/><path fill-rule="evenodd" clip-rule="evenodd" d="M220.128 161.762c-11.985 11.968-12.046 31.309-.172 43.199 11.873 11.891 31.214 11.857 43.199-.111 11.984-11.968 12.045-31.308.172-43.199-11.874-11.89-31.214-11.856-43.199.111zm-3.007 46.03c-13.453-13.472-13.358-35.349.176-48.864s35.411-13.579 48.865-.107c13.453 13.472 13.357 35.349-.177 48.864-13.534 13.515-35.411 13.579-48.864.107z" fill="#4285F4"/><path d="M249.992 191.669c4.657-4.651 4.694-12.166.083-16.784-4.612-4.619-12.127-4.592-16.784.059-4.658 4.651-4.695 12.165-.083 16.784 4.612 4.618 12.126 4.592 16.784-.059z" fill="#4285F4"/><path d="M146.626 187.759h16.625a2.906 2.906 0 002.904-2.904v-6.811h-19.63v-16.625a2.907 2.907 0 00-2.904-2.905h-6.81v19.63h-16.626a2.907 2.907 0 00-2.904 2.905v6.81h19.63v16.626a2.906 2.906 0 002.904 2.904h6.811v-19.63z" fill="#073042"/><path d="M350.236 185.856h-124.59c-36.255 0-65.7 28.643-65.7 63.997s29.445 63.998 65.7 63.998h124.59c36.255 0 65.7-28.644 65.7-63.998s-29.445-63.997-65.7-63.997z" fill="#4285F4"/><path d="M164.954 225.316l-33.952 93.642c-6.71 17.828 2.804 37.557 20.932 43.366 17.927 5.709 37.557-.5 48.874-15.623l24.838-33.051-60.692-88.334zM412.03 228.119l32.35 90.839c6.71 17.827-2.805 37.557-20.932 43.366-17.928 5.709-37.558-.501-48.875-15.624l-24.838-33.05 62.295-85.531z" fill="#4285F4"/><path fill-rule="evenodd" clip-rule="evenodd" d="M317.018 228.766c-11.985 11.968-12.045 31.308-.172 43.199 11.873 11.89 31.214 11.856 43.199-.111 11.985-11.968 12.046-31.309.172-43.199-11.873-11.89-31.214-11.857-43.199.111zm-3.007 46.029c-13.453-13.472-13.357-35.349.177-48.864 13.534-13.515 35.411-13.579 48.864-.107 13.453 13.472 13.358 35.349-.176 48.864s-35.412 13.579-48.865.107z" fill="#D7EFFE"/><path d="M346.882 258.673c4.658-4.651 4.695-12.166.083-16.784-4.612-4.618-12.126-4.592-16.784.059-4.657 4.651-4.694 12.165-.083 16.784 4.612 4.618 12.127 4.592 16.784-.059z" fill="#D7EFFE"/><path d="M243.473 254.66h16.626a2.906 2.906 0 002.904-2.904v-6.811h-19.63V228.32a2.907 2.907 0 00-2.904-2.905h-6.811v19.63h-16.625a2.907 2.907 0 00-2.904 2.905v6.81h19.629v16.626a2.907 2.907 0 002.905 2.904h6.81v-19.63z" fill="#073042"/><path fill-rule="evenodd" clip-rule="evenodd" d="M360.654 132.139c-5.807 5.799-5.817 15.152-.086 20.892 5.731 5.739 15.084 5.742 20.891-.057 5.807-5.798 5.817-15.152.086-20.891-5.731-5.739-15.085-5.743-20.891.056zm-5.755 26.553c-8.887-8.899-8.816-23.325.093-32.222 8.91-8.897 23.336-8.947 32.223-.048 8.886 8.899 8.815 23.325-.094 32.222-8.91 8.897-23.336 8.947-32.222.048z" fill="#F86734"/><path d="M80.325 346.1l13.92 13.921c1.403 1.403 3.606 1.403 4.908 0l5.709-5.708-16.425-16.425 13.921-13.921c1.402-1.403 1.402-3.606 0-4.908l-5.709-5.709-16.425 16.425-13.92-13.921c-1.403-1.402-3.606-1.402-4.908 0l-5.709 5.709 16.425 16.425-13.921 13.921c-1.402 1.402-1.402 3.605 0 4.907l5.708 5.709L80.324 346.1z" fill="#3DDC84"/></svg>